<svg xmlns="http://www.w3.org/2000/svg" id="export" class="canvas" preserveAspectRatio="xMidYMid meet" style="" width="1215" height="47"><rect id="background" fill="#fff" pointer-events="all" width="1215" height="47"/><g id="origin" transform="translate(2.1137500762939454, 2.1137500762939454) scale(1)"><g id="clusters" class="clusters"/><g id="edge-paths" class="edge-paths"><defs><marker id="arrowhead" viewBox="0 0 10 10" refX="9" refY="5" markerUnits="strokeWidth" markerWidth="8" markerHeight="6" orient="auto" style="fill: rgb(0, 0, 0);"><path d="M 0 0 L 10 5 L 0 10 L 4 5 z" style="stroke-width: 1px;"/></marker><marker id="arrowhead-select" viewBox="0 0 10 10" refX="9" refY="5" markerUnits="strokeWidth" markerWidth="8" markerHeight="6" orient="auto" style="fill: rgb(238, 0, 0);"><path d="M 0 0 L 10 5 L 0 10 L 4 5 z" style="stroke-width: 1px;"/></marker><marker id="arrowhead-hover" viewBox="0 0 10 10" refX="9" refY="5" markerUnits="strokeWidth" markerWidth="8" markerHeight="6" orient="auto"><path d="M 0 0 L 10 5 L 0 10 L 4 5 z" style="stroke-width: 1px;"/></marker></defs><path id="edge-rescaling_1_input" class="edge-path" d="M101.95600128173828,20.375L103.62266794840495,20.375C105.28933461507161,20.375,108.62266794840495,20.375,116.99266815185547,20.375C125.36266835530598,20.375,138.7693354288737,20.375,152.1760025024414,20.375C165.58266957600912,20.375,178.9893366495768,20.375,187.35933685302734,20.375C195.72933705647787,20.375,199.0626703898112,20.375,200.72933705647787,20.375L202.39600372314453,20.375" style="stroke: rgb(0, 0, 0); stroke-width: 1px; fill: none; marker-end: url(&quot;#arrowhead&quot;);"/><path class="edge-path-hit-test" d="M101.95600128173828,20.375L103.62266794840495,20.375C105.28933461507161,20.375,108.62266794840495,20.375,116.99266815185547,20.375C125.36266835530598,20.375,138.7693354288737,20.375,152.1760025024414,20.375C165.58266957600912,20.375,178.9893366495768,20.375,187.35933685302734,20.375C195.72933705647787,20.375,199.0626703898112,20.375,200.72933705647787,20.375L202.39600372314453,20.375" style="pointer-events: stroke; stroke-width: 0.5em; fill: none; stroke: rgb(0, 0, 0); stroke-opacity: 0.001;"/><path id="edge-rescaling_1" class="edge-path" d="M263.6850051879883,20.375L265.35167185465497,20.375C267.0183385213216,20.375,270.35167185465497,20.375,273.6850051879883,20.375C277.0183385213216,20.375,280.35167185465497,20.375,282.0183385213216,20.375L283.6850051879883,20.375" style="stroke: rgb(0, 0, 0); stroke-width: 1px; fill: none; marker-end: url(&quot;#arrowhead&quot;);"/><path class="edge-path-hit-test" d="M263.6850051879883,20.375L265.35167185465497,20.375C267.0183385213216,20.375,270.35167185465497,20.375,273.6850051879883,20.375C277.0183385213216,20.375,280.35167185465497,20.375,282.0183385213216,20.375L283.6850051879883,20.375" style="pointer-events: stroke; stroke-width: 0.5em; fill: none; stroke: rgb(0, 0, 0); stroke-opacity: 0.001;"/><path id="edge-conv2d_3" class="edge-path" d="M348.42800521850586,20.375L350.09467188517254,20.375C351.7613385518392,20.375,355.09467188517254,20.375,358.42800521850586,20.375C361.7613385518392,20.375,365.09467188517254,20.375,366.7613385518392,20.375L368.42800521850586,20.375" style="stroke: rgb(0, 0, 0); stroke-width: 1px; fill: none; marker-end: url(&quot;#arrowhead&quot;);"/><path class="edge-path-hit-test" d="M348.42800521850586,20.375L350.09467188517254,20.375C351.7613385518392,20.375,355.09467188517254,20.375,358.42800521850586,20.375C361.7613385518392,20.375,365.09467188517254,20.375,366.7613385518392,20.375L368.42800521850586,20.375" style="pointer-events: stroke; stroke-width: 0.5em; fill: none; stroke: rgb(0, 0, 0); stroke-opacity: 0.001;"/><path id="edge-max_pooling2d_3" class="edge-path" d="M455.3140068054199,20.375L456.9806734720866,20.375C458.64734013875324,20.375,461.9806734720866,20.375,465.3140068054199,20.375C468.64734013875324,20.375,471.9806734720866,20.375,473.64734013875324,20.375L475.3140068054199,20.375" style="stroke: rgb(0, 0, 0); stroke-width: 1px; fill: none; marker-end: url(&quot;#arrowhead&quot;);"/><path class="edge-path-hit-test" d="M455.3140068054199,20.375L456.9806734720866,20.375C458.64734013875324,20.375,461.9806734720866,20.375,465.3140068054199,20.375C468.64734013875324,20.375,471.9806734720866,20.375,473.64734013875324,20.375L475.3140068054199,20.375" style="pointer-events: stroke; stroke-width: 0.5em; fill: none; stroke: rgb(0, 0, 0); stroke-opacity: 0.001;"/><path id="edge-conv2d_4" class="edge-path" d="M540.0570068359375,20.375L541.7236735026041,20.375C543.3903401692709,20.375,546.7236735026041,20.375,550.0570068359375,20.375C553.3903401692709,20.375,556.7236735026041,20.375,558.3903401692709,20.375L560.0570068359375,20.375" style="stroke: rgb(0, 0, 0); stroke-width: 1px; fill: none; marker-end: url(&quot;#arrowhead&quot;);"/><path class="edge-path-hit-test" d="M540.0570068359375,20.375L541.7236735026041,20.375C543.3903401692709,20.375,546.7236735026041,20.375,550.0570068359375,20.375C553.3903401692709,20.375,556.7236735026041,20.375,558.3903401692709,20.375L560.0570068359375,20.375" style="pointer-events: stroke; stroke-width: 0.5em; fill: none; stroke: rgb(0, 0, 0); stroke-opacity: 0.001;"/><path id="edge-max_pooling2d_4" class="edge-path" d="M646.9430084228516,20.375L648.6096750895182,20.375C650.2763417561849,20.375,653.6096750895182,20.375,656.9430084228516,20.375C660.2763417561849,20.375,663.6096750895182,20.375,665.2763417561849,20.375L666.9430084228516,20.375" style="stroke: rgb(0, 0, 0); stroke-width: 1px; fill: none; marker-end: url(&quot;#arrowhead&quot;);"/><path class="edge-path-hit-test" d="M646.9430084228516,20.375L648.6096750895182,20.375C650.2763417561849,20.375,653.6096750895182,20.375,656.9430084228516,20.375C660.2763417561849,20.375,663.6096750895182,20.375,665.2763417561849,20.375L666.9430084228516,20.375" style="pointer-events: stroke; stroke-width: 0.5em; fill: none; stroke: rgb(0, 0, 0); stroke-opacity: 0.001;"/><path id="edge-conv2d_5" class="edge-path" d="M731.6860084533691,20.375L733.3526751200358,20.375C735.0193417867025,20.375,738.3526751200358,20.375,741.6860084533691,20.375C745.0193417867025,20.375,748.3526751200358,20.375,750.0193417867025,20.375L751.6860084533691,20.375" style="stroke: rgb(0, 0, 0); stroke-width: 1px; fill: none; marker-end: url(&quot;#arrowhead&quot;);"/><path class="edge-path-hit-test" d="M731.6860084533691,20.375L733.3526751200358,20.375C735.0193417867025,20.375,738.3526751200358,20.375,741.6860084533691,20.375C745.0193417867025,20.375,748.3526751200358,20.375,750.0193417867025,20.375L751.6860084533691,20.375" style="pointer-events: stroke; stroke-width: 0.5em; fill: none; stroke: rgb(0, 0, 0); stroke-opacity: 0.001;"/><path id="edge-max_pooling2d_5" class="edge-path" d="M838.5720100402832,20.375L840.2386767069498,20.375C841.9053433736166,20.375,845.2386767069498,20.375,848.5720100402832,20.375C851.9053433736166,20.375,855.2386767069498,20.375,856.9053433736166,20.375L858.5720100402832,20.375" style="stroke: rgb(0, 0, 0); stroke-width: 1px; fill: none; marker-end: url(&quot;#arrowhead&quot;);"/><path class="edge-path-hit-test" d="M838.5720100402832,20.375L840.2386767069498,20.375C841.9053433736166,20.375,845.2386767069498,20.375,848.5720100402832,20.375C851.9053433736166,20.375,855.2386767069498,20.375,856.9053433736166,20.375L858.5720100402832,20.375" style="pointer-events: stroke; stroke-width: 0.5em; fill: none; stroke: rgb(0, 0, 0); stroke-opacity: 0.001;"/><path id="edge-dropout_1" class="edge-path" d="M914.8560104370117,20.375L916.5226771036783,20.375C918.1893437703451,20.375,921.5226771036783,20.375,924.8560104370117,20.375C928.1893437703451,20.375,931.5226771036783,20.375,933.1893437703451,20.375L934.8560104370117,20.375" style="stroke: rgb(0, 0, 0); stroke-width: 1px; fill: none; marker-end: url(&quot;#arrowhead&quot;);"/><path class="edge-path-hit-test" d="M914.8560104370117,20.375L916.5226771036783,20.375C918.1893437703451,20.375,921.5226771036783,20.375,924.8560104370117,20.375C928.1893437703451,20.375,931.5226771036783,20.375,933.1893437703451,20.375L934.8560104370117,20.375" style="pointer-events: stroke; stroke-width: 0.5em; fill: none; stroke: rgb(0, 0, 0); stroke-opacity: 0.001;"/><path id="edge-flatten_1" class="edge-path" d="M984.7050094604492,20.375L986.3716761271158,20.375C988.0383427937826,20.375,991.3716761271158,20.375,994.7050094604492,20.375C998.0383427937826,20.375,1001.3716761271158,20.375,1003.0383427937826,20.375L1004.7050094604492,20.375" style="stroke: rgb(0, 0, 0); stroke-width: 1px; fill: none; marker-end: url(&quot;#arrowhead&quot;);"/><path class="edge-path-hit-test" d="M984.7050094604492,20.375L986.3716761271158,20.375C988.0383427937826,20.375,991.3716761271158,20.375,994.7050094604492,20.375C998.0383427937826,20.375,1001.3716761271158,20.375,1003.0383427937826,20.375L1004.7050094604492,20.375" style="pointer-events: stroke; stroke-width: 0.5em; fill: none; stroke: rgb(0, 0, 0); stroke-opacity: 0.001;"/><path id="edge-dense_2" class="edge-path" d="M1069.4480094909668,20.375L1071.1146761576335,20.375C1072.7813428243,20.375,1076.1146761576335,20.375,1079.4480094909668,20.375C1082.7813428243,20.375,1086.1146761576335,20.375,1087.7813428243,20.375L1089.4480094909668,20.375" style="stroke: rgb(0, 0, 0); stroke-width: 1px; fill: none; marker-end: url(&quot;#arrowhead&quot;);"/><path class="edge-path-hit-test" d="M1069.4480094909668,20.375L1071.1146761576335,20.375C1072.7813428243,20.375,1076.1146761576335,20.375,1079.4480094909668,20.375C1082.7813428243,20.375,1086.1146761576335,20.375,1087.7813428243,20.375L1089.4480094909668,20.375" style="pointer-events: stroke; stroke-width: 0.5em; fill: none; stroke: rgb(0, 0, 0); stroke-opacity: 0.001;"/><path id="edge-dense_3" class="edge-path" d="M1134.809009552002,20.375L1136.4756762186687,20.375C1138.1423428853352,20.375,1141.4756762186687,20.375,1144.809009552002,20.375C1148.1423428853352,20.375,1151.4756762186687,20.375,1153.1423428853352,20.375L1154.809009552002,20.375" style="stroke: rgb(0, 0, 0); stroke-width: 1px; fill: none; marker-end: url(&quot;#arrowhead&quot;);"/><path class="edge-path-hit-test" d="M1134.809009552002,20.375L1136.4756762186687,20.375C1138.1423428853352,20.375,1141.4756762186687,20.375,1144.809009552002,20.375C1148.1423428853352,20.375,1151.4756762186687,20.375,1153.1423428853352,20.375L1154.809009552002,20.375" style="pointer-events: stroke; stroke-width: 0.5em; fill: none; stroke: rgb(0, 0, 0); stroke-opacity: 0.001;"/></g><g id="edge-labels" class="edge-labels"><text style="opacity: 1; font-family: -apple-system, BlinkMacSystemFont, &quot;Segoe WPC&quot;, &quot;Segoe UI&quot;, &quot;Ubuntu&quot;, &quot;Droid Sans&quot;, sans-serif, &quot;PingFang SC&quot;; font-size: 10px;" class="edge-label" id="edge-label-edge-rescaling_1_input" transform="translate(121.95600128173828,30.375)"><tspan xml:space="preserve" dy="1em" x="1">?×256×256×1</tspan></text></g><g id="nodes" class="nodes"><g id="input-name-rescaling_1_input" class="node graph-input" style="" transform="translate(0,10.1875)"><g class="node-item graph-item-input" transform="translate(0,0)"><path d="M5,0h91.95600128173828a5,5 0 0 1 5,5v10.375a5,5 0 0 1 -5,5h-91.95600128173828a5,5 0 0 1 -5,-5v-10.375a5,5 0 0 1 5,-5z" style="stroke: rgb(0, 0, 0); fill: rgb(238, 238, 238); stroke-width: 0px;"/><text x="6" y="14.28499984741211" style="font-family: -apple-system, BlinkMacSystemFont, &quot;Segoe WPC&quot;, &quot;Segoe UI&quot;, &quot;Ubuntu&quot;, &quot;Droid Sans&quot;, sans-serif, &quot;PingFang SC&quot;; font-size: 11px; text-rendering: geometricprecision; user-select: none;">rescaling_1_input</text><title>float32[?,256,256,1]</title></g><path class="node node-border" d="M5,0h91.95600128173828a5,5 0 0 1 5,5v10.375a5,5 0 0 1 -5,5h-91.95600128173828a5,5 0 0 1 -5,-5v-10.375a5,5 0 0 1 5,-5z" style="stroke: rgb(51, 51, 51); fill: none; stroke-width: 1px;"/></g><g id="node-name-rescaling_1" class="node graph-node" style="" transform="translate(202.39600372314453,10.1875)"><g class="node-item node-item-type" transform="translate(0,0)"><path d="M5,0h51.28900146484375a5,5 0 0 1 5,5v10.375a5,5 0 0 1 -5,5h-51.28900146484375a5,5 0 0 1 -5,-5v-10.375a5,5 0 0 1 5,-5z" style="stroke: rgb(0, 0, 0); fill: rgb(0, 0, 0); stroke-width: 0px;"/><text x="6" y="14.28499984741211" style="font-family: -apple-system, BlinkMacSystemFont, &quot;Segoe WPC&quot;, &quot;Segoe UI&quot;, &quot;Ubuntu&quot;, &quot;Droid Sans&quot;, sans-serif, &quot;PingFang SC&quot;; font-size: 11px; text-rendering: geometricprecision; user-select: none; fill: rgb(255, 255, 255);">Rescaling</text><title>rescaling_1</title></g><path class="node node-border" d="M5,0h51.28900146484375a5,5 0 0 1 5,5v10.375a5,5 0 0 1 -5,5h-51.28900146484375a5,5 0 0 1 -5,-5v-10.375a5,5 0 0 1 5,-5z" style="stroke: rgb(51, 51, 51); fill: none; stroke-width: 1px;"/></g><g id="node-name-conv2d_3" class="node graph-node" style="" transform="translate(283.6850051879883,0)"><g class="node-item node-item-type node-item-type-layer" transform="translate(0,0)"><path d="M5,0h54.74300003051758a5,5 0 0 1 5,5v15.375a0,0 0 0 1 0,0h-64.74300003051758a0,0 0 0 1 0,0v-15.375a5,5 0 0 1 5,-5z" style="stroke: rgb(0, 0, 0); fill: rgb(51, 85, 136); stroke-width: 0px;"/><text x="6" y="14.28499984741211" style="font-family: -apple-system, BlinkMacSystemFont, &quot;Segoe WPC&quot;, &quot;Segoe UI&quot;, &quot;Ubuntu&quot;, &quot;Droid Sans&quot;, sans-serif, &quot;PingFang SC&quot;; font-size: 11px; text-rendering: geometricprecision; user-select: none; fill: rgb(255, 255, 255);">Conv2D</text><title>conv2d_3</title></g><g class="node-item node-item-type node-item-type-activation" transform="translate(0,20.375)"><path d="M0,0h64.74300003051758a0,0 0 0 1 0,0v15.375a5,5 0 0 1 -5,5h-54.74300003051758a5,5 0 0 1 -5,-5v-15.375a0,0 0 0 1 0,0z" style="stroke: rgb(0, 0, 0); fill: rgb(112, 41, 33); stroke-width: 0px;"/><text x="6" y="14.28499984741211" style="font-family: -apple-system, BlinkMacSystemFont, &quot;Segoe WPC&quot;, &quot;Segoe UI&quot;, &quot;Ubuntu&quot;, &quot;Droid Sans&quot;, sans-serif, &quot;PingFang SC&quot;; font-size: 11px; text-rendering: geometricprecision; user-select: none; fill: rgb(255, 255, 255);">Activation</text></g><line class="node" x1="0" x2="64.74300003051758" y1="20.375" y2="20.375" style="stroke: rgb(51, 51, 51); fill: none; stroke-width: 1px;"/><path class="node node-border" d="M5,0h54.74300003051758a5,5 0 0 1 5,5v30.75a5,5 0 0 1 -5,5h-54.74300003051758a5,5 0 0 1 -5,-5v-30.75a5,5 0 0 1 5,-5z" style="stroke: rgb(51, 51, 51); fill: none; stroke-width: 1px;"/></g><g id="node-name-max_pooling2d_3" class="node graph-node" style="" transform="translate(368.42800521850586,10.1875)"><g class="node-item node-item-type node-item-type-pool" transform="translate(0,0)"><path d="M5,0h76.88600158691406a5,5 0 0 1 5,5v10.375a5,5 0 0 1 -5,5h-76.88600158691406a5,5 0 0 1 -5,-5v-10.375a5,5 0 0 1 5,-5z" style="stroke: rgb(0, 0, 0); fill: rgb(51, 85, 51); stroke-width: 0px;"/><text x="6" y="14.28499984741211" style="font-family: -apple-system, BlinkMacSystemFont, &quot;Segoe WPC&quot;, &quot;Segoe UI&quot;, &quot;Ubuntu&quot;, &quot;Droid Sans&quot;, sans-serif, &quot;PingFang SC&quot;; font-size: 11px; text-rendering: geometricprecision; user-select: none; fill: rgb(255, 255, 255);">MaxPooling2D</text><title>max_pooling2d_3</title></g><path class="node node-border" d="M5,0h76.88600158691406a5,5 0 0 1 5,5v10.375a5,5 0 0 1 -5,5h-76.88600158691406a5,5 0 0 1 -5,-5v-10.375a5,5 0 0 1 5,-5z" style="stroke: rgb(51, 51, 51); fill: none; stroke-width: 1px;"/></g><g id="node-name-conv2d_4" class="node graph-node" style="" transform="translate(475.3140068054199,0)"><g class="node-item node-item-type node-item-type-layer" transform="translate(0,0)"><path d="M5,0h54.74300003051758a5,5 0 0 1 5,5v15.375a0,0 0 0 1 0,0h-64.74300003051758a0,0 0 0 1 0,0v-15.375a5,5 0 0 1 5,-5z" style="stroke: rgb(0, 0, 0); fill: rgb(51, 85, 136); stroke-width: 0px;"/><text x="6" y="14.28499984741211" style="font-family: -apple-system, BlinkMacSystemFont, &quot;Segoe WPC&quot;, &quot;Segoe UI&quot;, &quot;Ubuntu&quot;, &quot;Droid Sans&quot;, sans-serif, &quot;PingFang SC&quot;; font-size: 11px; text-rendering: geometricprecision; user-select: none; fill: rgb(255, 255, 255);">Conv2D</text><title>conv2d_4</title></g><g class="node-item node-item-type node-item-type-activation" transform="translate(0,20.375)"><path d="M0,0h64.74300003051758a0,0 0 0 1 0,0v15.375a5,5 0 0 1 -5,5h-54.74300003051758a5,5 0 0 1 -5,-5v-15.375a0,0 0 0 1 0,0z" style="stroke: rgb(0, 0, 0); fill: rgb(112, 41, 33); stroke-width: 0px;"/><text x="6" y="14.28499984741211" style="font-family: -apple-system, BlinkMacSystemFont, &quot;Segoe WPC&quot;, &quot;Segoe UI&quot;, &quot;Ubuntu&quot;, &quot;Droid Sans&quot;, sans-serif, &quot;PingFang SC&quot;; font-size: 11px; text-rendering: geometricprecision; user-select: none; fill: rgb(255, 255, 255);">Activation</text></g><line class="node" x1="0" x2="64.74300003051758" y1="20.375" y2="20.375" style="stroke: rgb(51, 51, 51); fill: none; stroke-width: 1px;"/><path class="node node-border" d="M5,0h54.74300003051758a5,5 0 0 1 5,5v30.75a5,5 0 0 1 -5,5h-54.74300003051758a5,5 0 0 1 -5,-5v-30.75a5,5 0 0 1 5,-5z" style="stroke: rgb(51, 51, 51); fill: none; stroke-width: 1px;"/></g><g id="node-name-max_pooling2d_4" class="node graph-node" style="" transform="translate(560.0570068359375,10.1875)"><g class="node-item node-item-type node-item-type-pool" transform="translate(0,0)"><path d="M5,0h76.88600158691406a5,5 0 0 1 5,5v10.375a5,5 0 0 1 -5,5h-76.88600158691406a5,5 0 0 1 -5,-5v-10.375a5,5 0 0 1 5,-5z" style="stroke: rgb(0, 0, 0); fill: rgb(51, 85, 51); stroke-width: 0px;"/><text x="6" y="14.28499984741211" style="font-family: -apple-system, BlinkMacSystemFont, &quot;Segoe WPC&quot;, &quot;Segoe UI&quot;, &quot;Ubuntu&quot;, &quot;Droid Sans&quot;, sans-serif, &quot;PingFang SC&quot;; font-size: 11px; text-rendering: geometricprecision; user-select: none; fill: rgb(255, 255, 255);">MaxPooling2D</text><title>max_pooling2d_4</title></g><path class="node node-border" d="M5,0h76.88600158691406a5,5 0 0 1 5,5v10.375a5,5 0 0 1 -5,5h-76.88600158691406a5,5 0 0 1 -5,-5v-10.375a5,5 0 0 1 5,-5z" style="stroke: rgb(51, 51, 51); fill: none; stroke-width: 1px;"/></g><g id="node-name-conv2d_5" class="node graph-node" style="" transform="translate(666.9430084228516,0)"><g class="node-item node-item-type node-item-type-layer" transform="translate(0,0)"><path d="M5,0h54.74300003051758a5,5 0 0 1 5,5v15.375a0,0 0 0 1 0,0h-64.74300003051758a0,0 0 0 1 0,0v-15.375a5,5 0 0 1 5,-5z" style="stroke: rgb(0, 0, 0); fill: rgb(51, 85, 136); stroke-width: 0px;"/><text x="6" y="14.28499984741211" style="font-family: -apple-system, BlinkMacSystemFont, &quot;Segoe WPC&quot;, &quot;Segoe UI&quot;, &quot;Ubuntu&quot;, &quot;Droid Sans&quot;, sans-serif, &quot;PingFang SC&quot;; font-size: 11px; text-rendering: geometricprecision; user-select: none; fill: rgb(255, 255, 255);">Conv2D</text><title>conv2d_5</title></g><g class="node-item node-item-type node-item-type-activation" transform="translate(0,20.375)"><path d="M0,0h64.74300003051758a0,0 0 0 1 0,0v15.375a5,5 0 0 1 -5,5h-54.74300003051758a5,5 0 0 1 -5,-5v-15.375a0,0 0 0 1 0,0z" style="stroke: rgb(0, 0, 0); fill: rgb(112, 41, 33); stroke-width: 0px;"/><text x="6" y="14.28499984741211" style="font-family: -apple-system, BlinkMacSystemFont, &quot;Segoe WPC&quot;, &quot;Segoe UI&quot;, &quot;Ubuntu&quot;, &quot;Droid Sans&quot;, sans-serif, &quot;PingFang SC&quot;; font-size: 11px; text-rendering: geometricprecision; user-select: none; fill: rgb(255, 255, 255);">Activation</text></g><line class="node" x1="0" x2="64.74300003051758" y1="20.375" y2="20.375" style="stroke: rgb(51, 51, 51); fill: none; stroke-width: 1px;"/><path class="node node-border" d="M5,0h54.74300003051758a5,5 0 0 1 5,5v30.75a5,5 0 0 1 -5,5h-54.74300003051758a5,5 0 0 1 -5,-5v-30.75a5,5 0 0 1 5,-5z" style="stroke: rgb(51, 51, 51); fill: none; stroke-width: 1px;"/></g><g id="node-name-max_pooling2d_5" class="node graph-node" style="" transform="translate(751.6860084533691,10.1875)"><g class="node-item node-item-type node-item-type-pool" transform="translate(0,0)"><path d="M5,0h76.88600158691406a5,5 0 0 1 5,5v10.375a5,5 0 0 1 -5,5h-76.88600158691406a5,5 0 0 1 -5,-5v-10.375a5,5 0 0 1 5,-5z" style="stroke: rgb(0, 0, 0); fill: rgb(51, 85, 51); stroke-width: 0px;"/><text x="6" y="14.28499984741211" style="font-family: -apple-system, BlinkMacSystemFont, &quot;Segoe WPC&quot;, &quot;Segoe UI&quot;, &quot;Ubuntu&quot;, &quot;Droid Sans&quot;, sans-serif, &quot;PingFang SC&quot;; font-size: 11px; text-rendering: geometricprecision; user-select: none; fill: rgb(255, 255, 255);">MaxPooling2D</text><title>max_pooling2d_5</title></g><path class="node node-border" d="M5,0h76.88600158691406a5,5 0 0 1 5,5v10.375a5,5 0 0 1 -5,5h-76.88600158691406a5,5 0 0 1 -5,-5v-10.375a5,5 0 0 1 5,-5z" style="stroke: rgb(51, 51, 51); fill: none; stroke-width: 1px;"/></g><g id="node-name-dropout_1" class="node graph-node" style="" transform="translate(858.5720100402832,10.1875)"><g class="node-item node-item-type node-item-type-dropout" transform="translate(0,0)"><path d="M5,0h46.284000396728516a5,5 0 0 1 5,5v10.375a5,5 0 0 1 -5,5h-46.284000396728516a5,5 0 0 1 -5,-5v-10.375a5,5 0 0 1 5,-5z" style="stroke: rgb(0, 0, 0); fill: rgb(69, 71, 112); stroke-width: 0px;"/><text x="6" y="14.28499984741211" style="font-family: -apple-system, BlinkMacSystemFont, &quot;Segoe WPC&quot;, &quot;Segoe UI&quot;, &quot;Ubuntu&quot;, &quot;Droid Sans&quot;, sans-serif, &quot;PingFang SC&quot;; font-size: 11px; text-rendering: geometricprecision; user-select: none; fill: rgb(255, 255, 255);">Dropout</text><title>dropout_1</title></g><path class="node node-border" d="M5,0h46.284000396728516a5,5 0 0 1 5,5v10.375a5,5 0 0 1 -5,5h-46.284000396728516a5,5 0 0 1 -5,-5v-10.375a5,5 0 0 1 5,-5z" style="stroke: rgb(51, 51, 51); fill: none; stroke-width: 1px;"/></g><g id="node-name-flatten_1" class="node graph-node" style="" transform="translate(934.8560104370117,10.1875)"><g class="node-item node-item-type node-item-type-shape" transform="translate(0,0)"><path d="M5,0h39.8489990234375a5,5 0 0 1 5,5v10.375a5,5 0 0 1 -5,5h-39.8489990234375a5,5 0 0 1 -5,-5v-10.375a5,5 0 0 1 5,-5z" style="stroke: rgb(0, 0, 0); fill: rgb(108, 79, 71); stroke-width: 0px;"/><text x="6" y="14.28499984741211" style="font-family: -apple-system, BlinkMacSystemFont, &quot;Segoe WPC&quot;, &quot;Segoe UI&quot;, &quot;Ubuntu&quot;, &quot;Droid Sans&quot;, sans-serif, &quot;PingFang SC&quot;; font-size: 11px; text-rendering: geometricprecision; user-select: none; fill: rgb(255, 255, 255);">Flatten</text><title>flatten_1</title></g><path class="node node-border" d="M5,0h39.8489990234375a5,5 0 0 1 5,5v10.375a5,5 0 0 1 -5,5h-39.8489990234375a5,5 0 0 1 -5,-5v-10.375a5,5 0 0 1 5,-5z" style="stroke: rgb(51, 51, 51); fill: none; stroke-width: 1px;"/></g><g id="node-name-dense_2" class="node graph-node" style="" transform="translate(1004.7050094604492,0)"><g class="node-item node-item-type node-item-type-layer" transform="translate(0,0)"><path d="M5,0h54.74300003051758a5,5 0 0 1 5,5v15.375a0,0 0 0 1 0,0h-64.74300003051758a0,0 0 0 1 0,0v-15.375a5,5 0 0 1 5,-5z" style="stroke: rgb(0, 0, 0); fill: rgb(51, 85, 136); stroke-width: 0px;"/><text x="6" y="14.28499984741211" style="font-family: -apple-system, BlinkMacSystemFont, &quot;Segoe WPC&quot;, &quot;Segoe UI&quot;, &quot;Ubuntu&quot;, &quot;Droid Sans&quot;, sans-serif, &quot;PingFang SC&quot;; font-size: 11px; text-rendering: geometricprecision; user-select: none; fill: rgb(255, 255, 255);">Dense</text><title>dense_2</title></g><g class="node-item node-item-type node-item-type-activation" transform="translate(0,20.375)"><path d="M0,0h64.74300003051758a0,0 0 0 1 0,0v15.375a5,5 0 0 1 -5,5h-54.74300003051758a5,5 0 0 1 -5,-5v-15.375a0,0 0 0 1 0,0z" style="stroke: rgb(0, 0, 0); fill: rgb(112, 41, 33); stroke-width: 0px;"/><text x="6" y="14.28499984741211" style="font-family: -apple-system, BlinkMacSystemFont, &quot;Segoe WPC&quot;, &quot;Segoe UI&quot;, &quot;Ubuntu&quot;, &quot;Droid Sans&quot;, sans-serif, &quot;PingFang SC&quot;; font-size: 11px; text-rendering: geometricprecision; user-select: none; fill: rgb(255, 255, 255);">Activation</text></g><line class="node" x1="0" x2="64.74300003051758" y1="20.375" y2="20.375" style="stroke: rgb(51, 51, 51); fill: none; stroke-width: 1px;"/><path class="node node-border" d="M5,0h54.74300003051758a5,5 0 0 1 5,5v30.75a5,5 0 0 1 -5,5h-54.74300003051758a5,5 0 0 1 -5,-5v-30.75a5,5 0 0 1 5,-5z" style="stroke: rgb(51, 51, 51); fill: none; stroke-width: 1px;"/></g><g id="node-name-dense_3" class="node graph-node" style="" transform="translate(1089.4480094909668,10.1875)"><g class="node-item node-item-type node-item-type-layer" transform="translate(0,0)"><path d="M5,0h35.361000061035156a5,5 0 0 1 5,5v10.375a5,5 0 0 1 -5,5h-35.361000061035156a5,5 0 0 1 -5,-5v-10.375a5,5 0 0 1 5,-5z" style="stroke: rgb(0, 0, 0); fill: rgb(51, 85, 136); stroke-width: 0px;"/><text x="6" y="14.28499984741211" style="font-family: -apple-system, BlinkMacSystemFont, &quot;Segoe WPC&quot;, &quot;Segoe UI&quot;, &quot;Ubuntu&quot;, &quot;Droid Sans&quot;, sans-serif, &quot;PingFang SC&quot;; font-size: 11px; text-rendering: geometricprecision; user-select: none; fill: rgb(255, 255, 255);">Dense</text><title>dense_3</title></g><path class="node node-border" d="M5,0h35.361000061035156a5,5 0 0 1 5,5v10.375a5,5 0 0 1 -5,5h-35.361000061035156a5,5 0 0 1 -5,-5v-10.375a5,5 0 0 1 5,-5z" style="stroke: rgb(51, 51, 51); fill: none; stroke-width: 1px;"/></g><g class="node" style="" transform="translate(1154.809009552002,10.1875)"><g class="node-item graph-item-output" transform="translate(0,0)"><path d="M5,0h45.612998962402344a5,5 0 0 1 5,5v10.375a5,5 0 0 1 -5,5h-45.612998962402344a5,5 0 0 1 -5,-5v-10.375a5,5 0 0 1 5,-5z" style="stroke: rgb(0, 0, 0); fill: rgb(238, 238, 238); stroke-width: 0px;"/><text x="6" y="14.28499984741211" style="font-family: -apple-system, BlinkMacSystemFont, &quot;Segoe WPC&quot;, &quot;Segoe UI&quot;, &quot;Ubuntu&quot;, &quot;Droid Sans&quot;, sans-serif, &quot;PingFang SC&quot;; font-size: 11px; text-rendering: geometricprecision; user-select: none;">dense_3</text></g><path class="node node-border" d="M5,0h45.612998962402344a5,5 0 0 1 5,5v10.375a5,5 0 0 1 -5,5h-45.612998962402344a5,5 0 0 1 -5,-5v-10.375a5,5 0 0 1 5,-5z" style="stroke: rgb(51, 51, 51); fill: none; stroke-width: 1px;"/></g></g></g></svg>